<?xml version="1.0" encoding="UTF-8"?>
<svg id="Layer_1" data-name="Layer 1" xmlns="http://www.w3.org/2000/svg" viewBox="0 0 99.1 99.1">
  <defs>
    <style>
      .cls-1 {
        fill: none;
      }

      .cls-2 {
        fill: #2f3c4f;
      }

      .cls-3 {
        fill: #517087;
      }
    </style>
  </defs>
  <path class="cls-2" d="m75.29,64.62c-.54.07-1.13.11-1.65.11h-40.99c-7.1.93-13.62-4.1-14.54-11.21-.93-7.1,4.1-13.62,11.21-14.54.6-.07,1.2-.11,1.78-.11.69-5.75,5.2-10.51,11.21-11.3,5.38-.69,10.41,2.02,12.94,6.45.58-.18,1.18-.28,1.79-.37,5.12-.65,9.9,1.74,12.53,5.77.77-.26,1.56-.44,2.39-.54,7.1-.91,13.62,4.1,14.54,11.21.93,7.1-4.1,13.62-11.21,14.54Z"/>
  <path class="cls-3" d="m69.77,71.42c-.54.07-1.13.11-1.65.11H27.13c-7.1.93-13.62-4.1-14.54-11.21-.93-7.1,4.1-13.62,11.21-14.54.6-.07,1.2-.11,1.78-.11.69-5.75,5.2-10.51,11.21-11.3,5.38-.69,10.41,2.02,12.94,6.45.58-.18,1.18-.28,1.79-.37,5.12-.65,9.9,1.74,12.53,5.77.77-.26,1.56-.44,2.39-.54,7.1-.91,13.62,4.1,14.54,11.21.93,7.1-4.1,13.62-11.21,14.54Z"/>
  <g>
    <rect class="cls-1" width="99.1" height="99.1"/>
    <rect class="cls-1" width="99.1" height="12.48"/>
    <rect class="cls-1" y="86.62" width="98.87" height="12.48"/>
    <rect class="cls-1" x="43.31" y="43.31" width="99.1" height="12.48" transform="translate(142.41 -43.31) rotate(90)"/>
    <rect class="cls-1" x="-43.31" y="43.31" width="99.1" height="12.48" transform="translate(55.79 43.31) rotate(90)"/>
  </g>
</svg>