<?xml version="1.0" encoding="UTF-8"?>
<svg id="Layer_1" xmlns="http://www.w3.org/2000/svg" viewBox="0 0 99.1 99.1">
  <defs>
    <style>
      .cls-1 {
        fill: none;
      }

      .cls-2 {
        fill: #544cb5;
      }

      .cls-3 {
        fill: #d2dae5;
      }
    </style>
  </defs>
  <circle class="cls-3" cx="64.87" cy="43.03" r="15.32"/>
  <path class="cls-2" d="M74.38,71.16c-.59.08-1.22.11-1.79.11H28.31c-7.67,1.01-14.72-4.43-15.71-12.12-1.01-7.67,4.43-14.72,12.12-15.71.65-.08,1.29-.11,1.92-.11.74-6.21,5.62-11.36,12.12-12.21,5.81-.74,11.24,2.18,13.98,6.97.63-.19,1.27-.3,1.94-.4,5.53-.7,10.69,1.88,13.54,6.23.84-.28,1.69-.47,2.58-.59,7.67-.99,14.72,4.43,15.71,12.12,1.01,7.67-4.43,14.72-12.12,15.71Z"/>
  <rect class="cls-1" width="99.1" height="99.1"/>
  <rect class="cls-1" x="0" width="99.1" height="12.48"/>
  <rect class="cls-1" x="0" y="86.62" width="98.87" height="12.48"/>
  <rect class="cls-1" x="43.31" y="43.31" width="99.1" height="12.48" transform="translate(142.41 -43.31) rotate(90)"/>
  <rect class="cls-1" x="-43.31" y="43.31" width="99.1" height="12.48" transform="translate(55.79 43.31) rotate(90)"/>
</svg>