<?xml version="1.0" encoding="UTF-8"?>
<svg id="Layer_1" xmlns="http://www.w3.org/2000/svg" xmlns:xlink="http://www.w3.org/1999/xlink" viewBox="0 0 99.1 99.1">
  <defs>
    <style>
      .cls-1 {
        fill: none;
      }

      .cls-2 {
        fill: url(#linear-gradient);
      }
    </style>
    <linearGradient id="linear-gradient" x1="12.79" y1="49.55" x2="86.31" y2="49.55" gradientUnits="userSpaceOnUse">
      <stop offset="0" stop-color="#9c97f0"/>
      <stop offset="1" stop-color="#aeaaff"/>
    </linearGradient>
  </defs>
  <path class="cls-2" d="M52.02,22.97c0,5.79-4.7,10.49-10.49,10.49H14.93c-1.18,0-2.14-.94-2.14-2.14s.97-2.14,2.14-2.14h26.59c3.41,0,6.2-2.77,6.2-6.2s-2.79-6.2-6.2-6.2h-8.43c1.89-2.6,4.95-4.29,8.43-4.29,5.79,0,10.49,4.7,10.49,10.49ZM67.42,74.77c0-6.54-5.31-11.85-11.85-11.85H15.21c-1.33,0-2.42,1.07-2.42,2.42s1.09,2.42,2.42,2.42h40.35c3.85,0,7,3.13,7,7s-3.15,7-7,7h-9.52c2.13,2.93,5.6,4.85,9.52,4.85,6.54,0,11.85-5.31,11.85-11.85ZM72.71,23.96c-4.5,0-8.48,2.2-10.93,5.56h10.93c4.42,0,8.04,3.62,8.04,8.04s-3.62,8.04-8.04,8.04H15.57c-1.53,0-2.78,1.25-2.78,2.78s1.25,2.78,2.78,2.78h57.14c7.51,0,13.6-6.09,13.6-13.6s-6.09-13.6-13.6-13.6Z"/>
  <rect class="cls-1" x="0" width="99.1" height="99.1"/>
  <rect class="cls-1" y="0" width="99.1" height="99.1"/>
  <rect class="cls-1" y="0" width="99.1" height="12.48"/>
  <rect class="cls-1" y="86.62" width="98.87" height="12.48"/>
  <rect class="cls-1" x="43.31" y="43.31" width="99.1" height="12.48" transform="translate(142.41 -43.31) rotate(90)"/>
  <rect class="cls-1" x="-43.31" y="43.31" width="99.1" height="12.48" transform="translate(55.79 43.31) rotate(90)"/>
</svg>