<?xml version="1.0" encoding="UTF-8"?>
<svg id="Layer_1" xmlns="http://www.w3.org/2000/svg" viewBox="0 0 99.1 99.1">
  <defs>
    <style>
      .cls-1 {
        fill: none;
      }

      .cls-2 {
        fill: #544cb5;
      }

      .cls-3 {
        fill: #001265;
      }

      .cls-4 {
        fill: #d2dae5;
      }

      .cls-5 {
        fill: #9090c7;
      }
    </style>
  </defs>
  <g>
    <path class="cls-5" d="M26.32,75.67c-.23,0-.46-.06-.67-.18-.63-.37-.84-1.18-.47-1.81l2.82-4.82c.37-.63,1.18-.84,1.81-.47.63.37.84,1.18.47,1.81l-2.82,4.82c-.25.42-.69.65-1.14.65Z"/>
    <path class="cls-5" d="M44.28,75.67c-.23,0-.46-.06-.67-.18-.63-.37-.84-1.18-.47-1.81l2.83-4.82c.37-.63,1.17-.84,1.81-.47.63.37.84,1.18.47,1.81l-2.83,4.82c-.25.42-.69.65-1.14.65Z"/>
    <path class="cls-5" d="M32.48,82.34c-.23,0-.46-.06-.67-.18-.63-.37-.84-1.18-.47-1.81l2.82-4.82c.37-.63,1.18-.84,1.81-.47.63.37.84,1.18.47,1.81l-2.82,4.82c-.25.42-.69.65-1.14.65Z"/>
    <path class="cls-5" d="M50.43,82.34c-.23,0-.46-.06-.67-.18-.63-.37-.84-1.18-.47-1.81l2.82-4.82c.37-.63,1.18-.84,1.81-.47.63.37.84,1.18.47,1.81l-2.82,4.82c-.25.42-.69.65-1.14.65Z"/>
    <path class="cls-5" d="M62.23,75.67c-.23,0-.46-.06-.67-.18-.63-.37-.84-1.18-.47-1.81l2.82-4.82c.37-.63,1.18-.84,1.81-.47.63.37.84,1.18.47,1.81l-2.82,4.82c-.25.42-.69.65-1.14.65Z"/>
  </g>
  <circle class="cls-4" cx="66.46" cy="30.96" r="14.2"/>
  <path class="cls-3" d="M75.27,57.08c-.55.07-1.13.11-1.65.11h-41.05c-7.11.93-13.64-4.1-14.56-11.23-.93-7.11,4.1-13.64,11.23-14.56.6-.07,1.2-.11,1.78-.11.69-5.76,5.21-10.53,11.23-11.32,5.39-.69,10.42,2.02,12.96,6.46.58-.18,1.18-.28,1.8-.37,5.12-.65,9.91,1.74,12.55,5.77.77-.26,1.57-.44,2.39-.55,7.11-.92,13.64,4.1,14.56,11.23.93,7.11-4.1,13.64-11.23,14.56Z"/>
  <path class="cls-2" d="M69.75,63.89c-.55.07-1.13.11-1.65.11H27.04c-7.11.93-13.64-4.1-14.56-11.23-.93-7.11,4.1-13.64,11.23-14.56.6-.07,1.2-.11,1.78-.11.69-5.76,5.21-10.53,11.23-11.32,5.39-.69,10.42,2.02,12.96,6.46.58-.18,1.18-.28,1.8-.37,5.12-.65,9.91,1.74,12.55,5.77.77-.26,1.57-.44,2.39-.55,7.11-.92,13.64,4.1,14.56,11.23.93,7.11-4.1,13.64-11.23,14.56Z"/>
  <rect class="cls-1" width="99.1" height="99.1"/>
  <rect class="cls-1" width="99.1" height="12.48"/>
  <rect class="cls-1" y="86.62" width="98.87" height="12.48"/>
  <rect class="cls-1" x="43.31" y="43.31" width="99.1" height="12.48" transform="translate(142.41 -43.31) rotate(90)"/>
  <rect class="cls-1" x="-43.31" y="43.31" width="99.1" height="12.48" transform="translate(55.79 43.31) rotate(90)"/>
</svg>