<?xml version="1.0" encoding="UTF-8"?>
<svg id="Layer_1" data-name="Layer 1" xmlns="http://www.w3.org/2000/svg" viewBox="0 0 99.1 99.1">
  <defs>
    <style>
      .cls-1 {
        fill: none;
      }

      .cls-2 {
        fill: #7db1d2;
      }

      .cls-3 {
        fill: #57859e;
      }
    </style>
  </defs>
  <path class="cls-3" d="m75.31,55.51c-.54.07-1.12.11-1.65.11h-40.92c-7.09.93-13.6-4.09-14.51-11.19-.93-7.09,4.09-13.6,11.19-14.51.6-.07,1.19-.11,1.77-.11.68-5.74,5.19-10.49,11.19-11.28,5.37-.68,10.39,2.02,12.91,6.44.58-.18,1.18-.28,1.79-.37,5.11-.65,9.88,1.74,12.51,5.76.77-.26,1.56-.44,2.39-.54,7.09-.91,13.6,4.09,14.51,11.19.93,7.09-4.09,13.6-11.19,14.51Z"/>
  <path class="cls-2" d="m69.8,62.3c-.54.07-1.12.11-1.65.11H27.24c-7.09.93-13.6-4.09-14.51-11.19-.93-7.09,4.09-13.6,11.19-14.51.6-.07,1.19-.11,1.77-.11.68-5.74,5.19-10.49,11.19-11.28,5.37-.68,10.39,2.02,12.91,6.44.58-.18,1.18-.28,1.79-.37,5.11-.65,9.88,1.74,12.51,5.76.77-.26,1.56-.44,2.39-.54,7.09-.91,13.6,4.09,14.51,11.19.93,7.09-4.09,13.6-11.19,14.51Z"/>
  <path class="cls-3" d="m26.52,74.03c-.23,0-.45-.06-.66-.18-.63-.37-.84-1.18-.47-1.8l2.82-4.8c.37-.63,1.17-.84,1.8-.47s.84,1.17.47,1.8l-2.82,4.8c-.25.42-.69.65-1.14.65Z"/>
  <path class="cls-3" d="m44.41,74.03c-.23,0-.46-.06-.66-.18-.63-.37-.84-1.17-.47-1.8l2.82-4.8c.37-.63,1.17-.84,1.8-.47.63.37.84,1.17.47,1.8l-2.82,4.8c-.25.42-.68.65-1.14.65Z"/>
  <path class="cls-3" d="m32.65,80.68c-.23,0-.45-.06-.66-.18-.63-.37-.84-1.17-.47-1.8l2.82-4.8c.37-.63,1.17-.84,1.8-.47.63.37.84,1.17.47,1.8l-2.82,4.8c-.25.42-.69.65-1.14.65Z"/>
  <path class="cls-3" d="m50.55,80.68c-.23,0-.45-.06-.66-.18-.63-.37-.84-1.17-.47-1.8l2.82-4.8c.37-.63,1.17-.84,1.8-.47.63.37.84,1.17.47,1.8l-2.82,4.8c-.25.42-.69.65-1.14.65Z"/>
  <path class="cls-3" d="m62.31,74.03c-.23,0-.45-.06-.66-.18-.63-.37-.84-1.18-.47-1.8l2.82-4.8c.37-.63,1.17-.84,1.8-.47s.84,1.17.47,1.8l-2.82,4.8c-.25.42-.69.65-1.14.65Z"/>
  <g>
    <rect class="cls-1" width="99.1" height="99.1"/>
    <rect class="cls-1" x="0" width="99.1" height="12.48"/>
    <rect class="cls-1" x="0" y="86.62" width="98.87" height="12.48"/>
    <rect class="cls-1" x="43.31" y="43.31" width="99.1" height="12.48" transform="translate(142.41 -43.31) rotate(90)"/>
    <rect class="cls-1" x="-43.31" y="43.31" width="99.1" height="12.48" transform="translate(55.79 43.31) rotate(90)"/>
  </g>
</svg>