<?xml version="1.0" encoding="UTF-8"?>
<svg id="Layer_1" xmlns="http://www.w3.org/2000/svg" viewBox="0 0 99.1 99.1">
  <defs>
    <style>
      .cls-1 {
        fill: none;
      }

      .cls-2 {
        fill: #dcb7e1;
      }
    </style>
  </defs>
  <rect class="cls-1" width="99.1" height="99.1"/>
  <path class="cls-2" d="M81.53,57.37l1.47-1.59c.29-.32,0-.85-.43-.74l-2.12.46c-.41.09-.81.26-1.18.46l-6.77,3.91-1.27.73-.65-.37-.62-.36h0s-7.87-4.55-7.87-4.55v-11.15s0-.38,0-.38l7.87-4.55h0s0,0,0,0l1.27-.73,1.27.72,6.77,3.91c.36.2.76.37,1.18.46l2.12.46c.42.11.72-.42.43-.74l-1.47-1.59c-.3-.31-.63-.58-.98-.79l-6.77-3.9,5.37-3.11c.16-.09.32-.21.47-.32.02-.01.03-.02.05-.03.15-.12.3-.26.43-.4,0-.01.02-.02.03-.03h0s0,0,0,0l.88-.97.58-.63s.07-.1.09-.16c0-.01,0-.03.01-.04,0-.02.01-.04.02-.07,0-.02,0-.04,0-.07,0-.02,0-.05,0-.07,0-.02-.02-.05-.03-.07,0-.02-.01-.04-.02-.06-.01-.02-.03-.04-.04-.06-.01-.02-.02-.03-.04-.05-.02-.02-.04-.03-.07-.05-.01,0-.03-.02-.04-.03-.03-.01-.05-.02-.08-.02,0,0-.01,0-.02,0-.06-.01-.12-.02-.19,0l-.77.17-1.36.3c-.18.04-.36.1-.53.17-.02,0-.05.01-.07.02-.02,0-.04.02-.05.03-.18.07-.35.15-.52.24l-5.38,3.1v-7.81c0-.42-.07-.84-.19-1.25l-.65-2.07c-.13-.41-.73-.41-.85,0l-.66,2.07c-.13.41-.19.83-.19,1.26v7.81s0,0,0,0v1.46s-1.27.74-1.27.74h-.01l-7.88,4.54-9.99-5.77v-10.56s1.27-.74,1.27-.74l6.77-3.9c.35-.21.7-.48.98-.79l1.46-1.6c.3-.31,0-.83-.43-.74l-2.11.48c-.42.1-.82.25-1.18.46l-6.77,3.91v-6.2c0-.09-.02-.18-.03-.28-.01-.2-.04-.39-.08-.58-.03-.13-.05-.26-.08-.38l-.33-1.04-.32-1.03c-.03-.08-.08-.13-.13-.18-.08-.08-.18-.13-.3-.13-.09,0-.18.02-.26.08-.03.02-.04.06-.06.09-.04.05-.09.08-.11.15l-.32,1.03-.33,1.04c-.06.22-.11.43-.14.65-.03.19-.05.39-.05.59v1.49s0,4.72,0,4.72l-6.76-3.91c-.37-.21-.76-.35-1.18-.46l-2.12-.48c-.43-.09-.72.43-.43.74l1.46,1.6c.29.31.63.58.99.79l6.76,3.9h.01l1.26.74v5.72s0,4.85,0,4.85l-.09.05-6.5,3.76-3.39,1.96-8.15-4.7-.99-.58v-1.46s0-7.82,0-7.82c0-.41-.06-.84-.19-1.25l-.66-2.07c-.12-.42-.72-.42-.85,0l-.64,2.06c-.12.41-.19.84-.19,1.25v7.82s-5.37-3.1-5.37-3.1c-.22-.13-.45-.22-.69-.3-.16-.06-.32-.11-.49-.16l-.89-.19-.52-.12-.69-.15h0s0,0,0,0c-.21-.05-.39.06-.48.21,0,0,0,0,0,.01-.04.07-.06.16-.06.24,0,0,0,0,0,.01,0,.08.04.16.1.23,0,0,.01.02.02.03l.31.33.62.68.54.59c.11.11.23.22.35.32.2.17.4.33.64.47l5.37,3.1-6.77,3.9c-.37.21-.69.48-.98.79l-1.47,1.6c-.29.32,0,.84.43.74l2.12-.46c.42-.1.81-.26,1.18-.47l6.76-3.91h0s1.27-.73,1.27-.73l.99.57,8.16,4.71v11.41s0,.13,0,.13l-9.15,5.28-1.27-.72h0s-6.76-3.91-6.76-3.91c-.37-.21-.76-.37-1.18-.47l-2.12-.46c-.42-.1-.72.42-.43.74l1.47,1.6c.3.31.62.58.98.79l6.77,3.9-5.37,3.1c-.05.03-.1.07-.15.1-.12.08-.24.15-.34.24-.17.14-.34.28-.49.44l-.58.64-.26.29-.61.67c-.07.08-.1.16-.11.25,0,.01,0,.03,0,.04,0,0,0,.02,0,.02,0,.07.02.13.05.19,0,0,0,.02.01.03.04.07.11.13.18.17,0,0,0,0,0,0,.08.04.17.05.26.03,0,0,.01,0,.02,0h0s0,0,0,0l1.05-.23,1.06-.23c.22-.05.43-.12.63-.21.13-.05.25-.11.37-.18.06-.03.11-.05.17-.08l5.37-3.1v7.82c0,.41.07.84.19,1.25l.64,2.06c.13.41.73.42.85,0l.66-2.07c.13-.4.19-.83.19-1.25v-7.82s0-1.46,0-1.46l9.15-5.28,9.99,5.76v9.1s0,0,0,0v.45s0,1.02,0,1.02l-1.26.73h-.01l-6.76,3.9c-.37.21-.7.48-.99.79l-1.46,1.6c-.29.31,0,.83.43.74l2.12-.48c.42-.1.81-.24,1.18-.46l6.76-3.91v6.2c0,.19.03.39.05.58.01.08.03.15.04.23.03.15.05.29.09.43l.27.85.19.6.2.62s0,0,0,0h0c.03.1.09.18.17.23.15.11.36.1.52,0,.03-.02.05-.07.08-.11.03-.04.08-.07.09-.13l.16-.53.49-1.54s0-.05.02-.07c.1-.38.17-.77.18-1.17v-6.2s6.77,3.91,6.77,3.91c.35.2.76.35,1.18.46l2.11.48c.43.09.73-.43.43-.74l-1.46-1.6c-.28-.31-.63-.58-.98-.79l-6.77-3.9-1.26-.74v-1.46s0-2.87,0-2.87v-6.22l3.34-1.93,6.6-3.81.05-.03,7.88,4.54h0l.23.13,1.04.61v1.46s0,0,0,0v7.81c0,.42.06.84.19,1.26l.66,2.07c.13.41.72.42.85,0l.65-2.07c.12-.41.19-.82.19-1.25v-7.81s5.37,3.1,5.37,3.1c.08.04.16.07.24.11.14.07.29.14.44.19.16.06.33.12.5.16l1.2.26.92.21c.07.01.13,0,.19,0,.03,0,.07-.01.1-.03,0,0,0,0,0,0,.04-.02.08-.05.11-.08.03-.03.06-.07.08-.11.06-.11.08-.24.04-.36-.02-.06-.05-.12-.09-.17l-.74-.8-.73-.8c-.09-.09-.19-.18-.29-.26-.15-.14-.31-.26-.49-.38-.07-.05-.14-.1-.21-.14l-5.37-3.11,6.77-3.91c.35-.21.69-.48.98-.79ZM39.55,44.08v-.3s10-5.77,10-5.77h.02s1.25.73,1.25.73l7.46,4.31,1.27.73v1.46s0,8.62,0,8.62v1.46s-1.01.59-1.01.59l-.25.15-3.59,2.08-3.87,2.23-.27.15-1,.58-.22-.13-9.78-5.64v-11.24Z"/>
</svg>