<?xml version="1.0" encoding="UTF-8"?>
<svg id="Layer_1" data-name="Layer 1" xmlns="http://www.w3.org/2000/svg" viewBox="0 0 99.1 99.1">
  <defs>
    <style>
      .cls-1 {
        fill: none;
      }

      .cls-2 {
        fill: #fbb042;
      }

      .cls-3 {
        fill: #7db1d2;
      }

      .cls-4 {
        fill: #57859e;
      }
    </style>
  </defs>
  <polygon class="cls-2" points="42.99 57.73 52.56 57.73 48.24 65.6 52.56 65.6 42.74 79.88 44.57 70.27 41.4 70.27 42.99 57.73"/>
  <polygon class="cls-2" points="27.27 60.67 32.51 60.67 30.15 64.98 32.51 64.98 27.13 72.79 28.14 67.53 26.4 67.53 27.27 60.67"/>
  <polygon class="cls-2" points="62.32 60.67 67.56 60.67 65.19 64.98 67.56 64.98 62.18 72.79 63.18 67.53 61.45 67.53 62.32 60.67"/>
  <path class="cls-4" d="m75.2,54.88c-.54.07-1.12.11-1.65.11h-40.91c-7.09.93-13.59-4.09-14.51-11.19-.93-7.09,4.09-13.59,11.19-14.51.6-.07,1.19-.11,1.77-.11.68-5.74,5.19-10.49,11.19-11.28,5.37-.68,10.38,2.02,12.91,6.44.58-.18,1.18-.28,1.79-.37,5.1-.65,9.88,1.74,12.51,5.75.77-.26,1.56-.44,2.39-.54,7.09-.91,13.59,4.09,14.51,11.19.93,7.09-4.09,13.59-11.19,14.51Z"/>
  <path class="cls-3" d="m69.7,61.67c-.54.07-1.12.11-1.65.11H27.14c-7.09.93-13.59-4.09-14.51-11.19-.93-7.09,4.09-13.59,11.19-14.51.6-.07,1.19-.11,1.77-.11.68-5.74,5.19-10.49,11.19-11.28,5.37-.68,10.38,2.02,12.91,6.44.58-.18,1.18-.28,1.79-.37,5.1-.65,9.88,1.74,12.51,5.75.77-.26,1.56-.44,2.39-.54,7.09-.91,13.59,4.09,14.51,11.19.93,7.09-4.09,13.59-11.19,14.51Z"/>
  <g>
    <rect class="cls-1" width="99.1" height="99.1"/>
    <rect class="cls-1" x="0" width="99.1" height="12.48"/>
    <rect class="cls-1" x="0" y="86.62" width="98.87" height="12.48"/>
    <rect class="cls-1" x="43.31" y="43.31" width="99.1" height="12.48" transform="translate(142.41 -43.31) rotate(90)"/>
    <rect class="cls-1" x="-43.31" y="43.31" width="99.1" height="12.48" transform="translate(55.79 43.31) rotate(90)"/>
  </g>
</svg>