<?xml version="1.0" encoding="UTF-8"?>
<svg id="Layer_1" xmlns="http://www.w3.org/2000/svg" viewBox="0 0 99.1 99.1">
  <defs>
    <style>
      .cls-1 {
        fill: none;
      }

      .cls-2 {
        fill: #544cb5;
      }

      .cls-3 {
        fill: #001265;
      }

      .cls-4 {
        fill: #f29f44;
      }
    </style>
  </defs>
  <polygon class="cls-4" points="41.43 71.02 44.61 71.02 42.77 80.65 52.61 66.34 48.29 66.34 52.61 58.46 43.03 58.46 41.43 71.02"/>
  <polygon class="cls-4" points="27.28 61.4 32.53 61.4 30.16 65.72 32.53 65.72 27.14 73.55 28.15 68.28 26.41 68.28 27.28 61.4"/>
  <polygon class="cls-4" points="62.39 61.4 67.64 61.4 65.27 65.72 67.64 65.72 62.25 73.55 63.25 68.28 61.51 68.28 62.39 61.4"/>
  <path class="cls-3" d="M75.29,55.6c-.54.07-1.12.11-1.65.11h-40.98c-7.1.93-13.62-4.09-14.53-11.21-.93-7.1,4.09-13.62,11.21-14.53.6-.07,1.19-.11,1.77-.11.69-5.75,5.2-10.51,11.21-11.3,5.38-.69,10.4,2.02,12.93,6.45.58-.18,1.18-.28,1.79-.37,5.11-.65,9.89,1.74,12.53,5.76.77-.26,1.56-.44,2.39-.54,7.1-.91,13.62,4.09,14.53,11.21.93,7.1-4.09,13.62-11.21,14.53Z"/>
  <path class="cls-2" d="M69.78,62.4c-.54.07-1.12.11-1.65.11H27.15c-7.1.93-13.62-4.09-14.53-11.21-.93-7.1,4.09-13.62,11.21-14.53.6-.07,1.19-.11,1.77-.11.69-5.75,5.2-10.51,11.21-11.3,5.38-.69,10.4,2.02,12.93,6.45.58-.18,1.18-.28,1.79-.37,5.11-.65,9.89,1.74,12.53,5.76.77-.26,1.56-.44,2.39-.54,7.1-.91,13.62,4.09,14.53,11.21.93,7.1-4.09,13.62-11.21,14.53Z"/>
  <rect class="cls-1" width="99.1" height="99.1"/>
  <rect class="cls-1" x="0" width="99.1" height="12.48"/>
  <rect class="cls-1" x="0" y="86.62" width="98.87" height="12.48"/>
  <rect class="cls-1" x="43.31" y="43.31" width="99.1" height="12.48" transform="translate(142.41 -43.31) rotate(90)"/>
  <rect class="cls-1" x="-43.31" y="43.31" width="99.1" height="12.48" transform="translate(55.79 43.31) rotate(90)"/>
</svg>