<?xml version="1.0" encoding="UTF-8"?>
<svg id="Layer_1" data-name="Layer 1" xmlns="http://www.w3.org/2000/svg" viewBox="0 0 99.1 99.1">
  <defs>
    <style>
      .cls-1 {
        fill: none;
      }

      .cls-2 {
        fill: #fbb042;
      }

      .cls-3 {
        fill: #7db1d2;
      }

      .cls-4 {
        fill: #57859e;
      }
    </style>
  </defs>
  <path class="cls-4" d="m26.48,75.6c-.23,0-.45-.06-.66-.18-.63-.37-.84-1.17-.47-1.8l2.82-4.81c.37-.63,1.17-.84,1.8-.47.63.37.84,1.17.47,1.8l-2.82,4.81c-.25.42-.69.65-1.14.65Z"/>
  <path class="cls-4" d="m44.39,75.6c-.23,0-.45-.06-.67-.18-.63-.37-.84-1.17-.47-1.8l2.82-4.81c.37-.63,1.17-.84,1.8-.47.63.37.84,1.17.47,1.8l-2.82,4.81c-.25.42-.68.65-1.14.65Z"/>
  <path class="cls-4" d="m32.62,82.25c-.23,0-.45-.06-.66-.18-.63-.37-.84-1.18-.47-1.8l2.82-4.8c.37-.63,1.17-.84,1.8-.47.63.37.84,1.18.47,1.8l-2.82,4.8c-.25.42-.69.65-1.14.65Z"/>
  <path class="cls-4" d="m50.53,82.25c-.23,0-.45-.06-.66-.18-.63-.37-.84-1.18-.47-1.8l2.82-4.8c.37-.63,1.17-.84,1.8-.47.63.37.84,1.18.47,1.8l-2.82,4.8c-.25.42-.69.65-1.14.65Z"/>
  <path class="cls-4" d="m62.3,75.6c-.23,0-.45-.06-.66-.18-.63-.37-.84-1.17-.47-1.8l2.82-4.81c.37-.63,1.17-.84,1.8-.47.63.37.84,1.17.47,1.8l-2.82,4.81c-.25.42-.69.65-1.14.65Z"/>
  <circle class="cls-2" cx="66.51" cy="31.01" r="14.16"/>
  <path class="cls-4" d="m75.3,57.06c-.54.07-1.12.11-1.65.11h-40.94c-7.09.93-13.61-4.09-14.52-11.2-.93-7.09,4.09-13.61,11.2-14.52.6-.07,1.19-.11,1.77-.11.68-5.74,5.2-10.5,11.2-11.29,5.37-.68,10.39,2.02,12.92,6.44.58-.18,1.18-.28,1.79-.37,5.11-.65,9.88,1.74,12.52,5.76.77-.26,1.56-.44,2.39-.54,7.09-.91,13.61,4.09,14.52,11.2.93,7.09-4.09,13.61-11.2,14.52Z"/>
  <path class="cls-3" d="m69.79,63.86c-.54.07-1.12.11-1.65.11H27.2c-7.09.93-13.61-4.09-14.52-11.2-.93-7.09,4.09-13.61,11.2-14.52.6-.07,1.19-.11,1.77-.11.68-5.74,5.2-10.5,11.2-11.29,5.37-.68,10.39,2.02,12.92,6.44.58-.18,1.18-.28,1.79-.37,5.11-.65,9.88,1.74,12.52,5.76.77-.26,1.56-.44,2.39-.54,7.09-.91,13.61,4.09,14.52,11.2.93,7.09-4.09,13.61-11.2,14.52Z"/>
  <g>
    <rect class="cls-1" width="99.1" height="99.1"/>
    <rect class="cls-1" x="0" width="99.1" height="12.48"/>
    <rect class="cls-1" x="0" y="86.62" width="98.87" height="12.48"/>
    <rect class="cls-1" x="43.31" y="43.31" width="99.1" height="12.48" transform="translate(142.41 -43.31) rotate(90)"/>
    <rect class="cls-1" x="-43.31" y="43.31" width="99.1" height="12.48" transform="translate(55.79 43.31) rotate(90)"/>
  </g>
</svg>