<?xml version="1.0" encoding="UTF-8"?>
<svg id="Layer_1" data-name="Layer 1" xmlns="http://www.w3.org/2000/svg" viewBox="0 0 99.1 99.1">
  <defs>
    <style>
      .cls-1 {
        fill: none;
      }

      .cls-2 {
        fill: #7db1d2;
      }
    </style>
  </defs>
  <rect class="cls-1" width="99.1" height="99.1"/>
  <path class="cls-2" d="m82.25,52.61l-16.02,4.29-5.79-3.37c.48-1.25.72-2.58.72-3.97s-.24-2.74-.72-4l5.78-3.37,16.03,4.29c.17.05.35.07.52.07.88,0,1.69-.59,1.93-1.48.29-1.07-.35-2.16-1.41-2.45l-12.16-3.26h.02s9.75-5.63,9.75-5.63c.96-.53,1.31-1.76.75-2.72s-1.78-1.28-2.74-.72l-9.74,5.62,3.25-12.13c.29-1.07-.35-2.16-1.41-2.45-1.08-.29-2.16.35-2.45,1.41l-4.28,15.98h-.02s-5.81,3.39-5.81,3.39c-1.7-2.08-4.13-3.54-6.9-4v-6.73l11.71-11.71c.78-.78.78-2.04,0-2.83s-2.04-.78-2.83,0l-8.88,8.88v-11.28c0-1.09-.88-2-2-2s-2,.91-2,2v11.27l-8.87-8.87c-.78-.78-2.04-.78-2.83,0s-.78,2.04,0,2.83l11.7,11.7v6.74c-2.74.45-5.19,1.92-6.9,4l-5.81-3.38h0s-4.28-15.99-4.28-15.99c-.29-1.06-1.36-1.7-2.45-1.41-1.06.29-1.7,1.38-1.41,2.45l3.25,12.13h0s-9.75-5.62-9.75-5.62c-.96-.56-2.18-.24-2.74.72-.53.96-.21,2.18.75,2.72l9.75,5.62.03.02-12.15,3.26c-1.06.29-1.7,1.38-1.41,2.45.24.89,1.05,1.48,1.93,1.48.17,0,.34-.02.52-.07l15.99-4.28h0s5.81,3.36,5.81,3.36c-.48,1.25-.72,2.61-.72,4s.24,2.72.72,3.97l-5.81,3.36h0s-15.99-4.28-15.99-4.28c-1.08-.29-2.16.35-2.45,1.41-.29,1.07.35,2.16,1.41,2.45l12.15,3.26h-.02s-9.75,5.63-9.75,5.63c-.96.53-1.28,1.76-.75,2.72.37.64,1.07,1.01,1.76,1.01.32,0,.67-.11.99-.29l9.75-5.62h0s-3.25,12.13-3.25,12.13c-.29,1.07.35,2.16,1.41,2.45.17.05.35.07.52.07.88,0,1.69-.59,1.93-1.48l4.28-15.99h0s5.81-3.36,5.81-3.36c1.7,2.05,4.16,3.52,6.9,3.97v6.74l-11.7,11.7c-.78.78-.78,2.04,0,2.83s2.04.78,2.83,0l8.87-8.87v11.27c0,1.09.91,2,2,2s2-.91,2-2v-11.28l8.88,8.88c.39.39.9.59,1.41.59s1.02-.2,1.41-.59c.78-.78.78-2.04,0-2.83l-11.71-11.71v-6.73c2.77-.45,5.19-1.92,6.9-3.97l5.81,3.36h.02s4.28,15.99,4.28,15.99c.24.89,1.05,1.48,1.93,1.48.17,0,.34-.02.52-.07,1.06-.29,1.7-1.38,1.41-2.45l-3.25-12.13,9.74,5.62c.32.19.67.29,1.01.29.69,0,1.36-.37,1.73-1.01.56-.96.21-2.18-.75-2.72l-9.75-5.62h-.02s12.16-3.27,12.16-3.27c1.06-.29,1.7-1.38,1.41-2.45-.28-1.06-1.36-1.7-2.45-1.41Zm-30.71,4.28c-.64.19-1.31.27-2,.27s-1.36-.11-2-.29c-1.28-.32-2.45-1.01-3.36-1.92s-1.65-2.1-2-3.44c-.19-.61-.27-1.28-.27-1.94s.08-1.33.27-1.97c.35-1.33,1.07-2.5,2-3.44.91-.91,2.08-1.6,3.36-1.92.64-.19,1.31-.29,2-.29s1.36.08,2,.27c1.28.35,2.42,1.04,3.36,1.94.96.93,1.65,2.1,2,3.44.19.64.27,1.28.27,1.97s-.08,1.33-.27,1.94c-.35,1.33-1.04,2.5-2,3.44-.93.91-2.08,1.6-3.36,1.94Z"/>
</svg>