<?xml version="1.0" encoding="UTF-8"?>
<svg id="Layer_1" data-name="Layer 1" xmlns="http://www.w3.org/2000/svg" viewBox="0 0 99.1 99.1">
  <defs>
    <style>
      .cls-1 {
        fill: none;
      }

      .cls-2 {
        fill: #7db1d2;
      }

      .cls-3 {
        fill: #57859e;
      }
    </style>
  </defs>
  <path class="cls-3" d="m75.27,64.69c-.55.07-1.13.11-1.66.11h-41.08c-7.12.94-13.65-4.11-14.57-11.26-.93-7.13,4.1-13.68,11.24-14.6.6-.07,1.2-.11,1.78-.11.69-5.77,5.21-10.56,11.24-11.35,5.39-.69,10.43,2.03,12.97,6.48.58-.18,1.18-.28,1.8-.37,5.13-.65,9.92,1.75,12.56,5.79.78-.26,1.57-.44,2.4-.55,7.12-.92,13.65,4.11,14.57,11.26.93,7.13-4.1,13.68-11.24,14.6Z"/>
  <path class="cls-2" d="m69.74,71.52c-.55.07-1.13.11-1.66.11H27c-7.12.94-13.65-4.11-14.57-11.26-.93-7.13,4.1-13.68,11.24-14.6.6-.07,1.2-.11,1.78-.11.69-5.77,5.21-10.56,11.24-11.35,5.39-.69,10.43,2.03,12.97,6.48.58-.18,1.18-.28,1.8-.37,5.13-.65,9.92,1.75,12.56,5.79.78-.26,1.57-.44,2.4-.55,7.12-.92,13.65,4.11,14.57,11.26.93,7.13-4.1,13.68-11.24,14.6Z"/>
  <g>
    <rect class="cls-1" width="99.1" height="99.1"/>
    <rect class="cls-1" x="0" width="99.1" height="12.48"/>
    <rect class="cls-1" x="0" y="86.62" width="98.87" height="12.48"/>
    <rect class="cls-1" x="43.31" y="43.31" width="99.1" height="12.48" transform="translate(142.41 -43.31) rotate(90)"/>
    <rect class="cls-1" x="-43.31" y="43.31" width="99.1" height="12.48" transform="translate(55.79 43.31) rotate(90)"/>
  </g>
</svg>